<?xml version="1.0" encoding="UTF-8" standalone="no"?>
<!-- Created with Inkscape (http://www.inkscape.org/) -->

<svg
   xmlns:dc="http://purl.org/dc/elements/1.1/"
   xmlns:cc="http://creativecommons.org/ns#"
   xmlns:rdf="http://www.w3.org/1999/02/22-rdf-syntax-ns#"
   xmlns:svg="http://www.w3.org/2000/svg"
   xmlns="http://www.w3.org/2000/svg"
   xmlns:sodipodi="http://sodipodi.sourceforge.net/DTD/sodipodi-0.dtd"
   xmlns:inkscape="http://www.inkscape.org/namespaces/inkscape"
   version="1.0"
   width="726.92529"
   height="618.49438"
   id="svg2"
   inkscape:version="0.48.0 r9654"
   sodipodi:docname="kiwi.svg">
  <title
     id="title2993">Kiwi</title>
  <sodipodi:namedview
     pagecolor="#ffffff"
     bordercolor="#666666"
     borderopacity="1"
     objecttolerance="10"
     gridtolerance="10"
     guidetolerance="10"
     inkscape:pageopacity="0"
     inkscape:pageshadow="2"
     inkscape:window-width="1024"
     inkscape:window-height="712"
     id="namedview16"
     showgrid="false"
     inkscape:zoom="0.76092934"
     inkscape:cx="368.11372"
     inkscape:cy="268.32841"
     inkscape:window-x="-4"
     inkscape:window-y="-4"
     inkscape:window-maximized="1"
     inkscape:current-layer="svg2"
     fit-margin-top="0"
     fit-margin-left="0"
     fit-margin-right="0"
     fit-margin-bottom="0" />
  <defs
     id="defs4" />
  <metadata
     id="metadata7">
    <rdf:RDF>
      <cc:Work
         rdf:about="">
        <dc:format>image/svg+xml</dc:format>
        <dc:type
           rdf:resource="http://purl.org/dc/dcmitype/StillImage" />
        <dc:creator>
          <cc:Agent>
            <dc:title>AJ Ashton</dc:title>
          </cc:Agent>
        </dc:creator>
        <dc:title>Kiwi</dc:title>
        <dc:subject>
          <rdf:Bag>
            <rdf:li>fruit</rdf:li>
            <rdf:li>kiwi</rdf:li>
            <rdf:li>tropical</rdf:li>
            <rdf:li>food</rdf:li>
          </rdf:Bag>
        </dc:subject>
        <cc:license
           rdf:resource="http://creativecommons.org/licenses/publicdomain/" />
        <dc:contributor>
          <cc:Agent>
            <dc:title>Jordan Irwin</dc:title>
          </cc:Agent>
        </dc:contributor>
        <dc:date>2011-01-20</dc:date>
      </cc:Work>
      <cc:License
         rdf:about="http://creativecommons.org/licenses/publicdomain/">
        <cc:permits
           rdf:resource="http://creativecommons.org/ns#Reproduction" />
        <cc:permits
           rdf:resource="http://creativecommons.org/ns#Distribution" />
        <cc:permits
           rdf:resource="http://creativecommons.org/ns#DerivativeWorks" />
      </cc:License>
    </rdf:RDF>
  </metadata>
  <g
     id="g3795"
     transform="translate(1.3141555,-2.4971234e-7)">
    <path
       d="M 723.98732,263.67253 C 707.11218,391.29024 560.07872,478.76703 345.75652,439.58828 133.11651,400.71705 178.80034,-7.82365 403.8691,0.114157 621.78898,7.799831 741.1266,134.05737 723.98732,263.67253 z"
       id="path1311"
       style="fill:#786b16;fill-opacity:1;fill-rule:evenodd;stroke:none"
       inkscape:connector-curvature="0" />
    <path
       d="M 533.16007,235.7994 C 521.69708,371.25684 435.50447,438.80151 348.94627,427.68861 262.38806,416.57572 208.44374,320.60009 223.57155,203.56434 238.69938,86.528607 311.45725,4.46588 397.71506,17.696888 443.99194,24.795278 544.79171,98.348967 533.16007,235.7994 z"
       id="path1309"
       style="fill:#78cc00;fill-opacity:1;fill-rule:evenodd;stroke:#c4f080;stroke-width:12.50000191;stroke-linecap:butt;stroke-linejoin:miter;stroke-miterlimit:4;stroke-opacity:1;stroke-dasharray:none"
       inkscape:connector-curvature="0" />
    <path
       d="m 352.86107,107.75604 c 10.57808,-2.15832 2.86875,48.72154 12.93627,56.78326 10.06751,8.06173 16.77151,-38.0157 25.71096,-25.86163 8.93945,12.15408 -15.67179,32.98619 -9.09954,48.11786 6.57225,15.13168 39.14153,-3.64337 41.8354,14.58376 2.69388,18.22713 -39.94588,0.92722 -40.82371,18.7747 -0.87783,17.8475 35.36356,46.52623 28.31695,61.50107 -7.04661,14.97485 -29.61549,-30.07623 -38.59594,-18.10641 -8.98043,11.96982 9.68088,56.4547 -0.97559,63.92702 -10.65646,7.47232 -8.47017,-51.10074 -19.40995,-52.53977 -10.93977,-1.43903 -9.39565,65.25251 -20.09306,60.46207 -10.69741,-4.79043 7.67727,-65.27771 -0.23081,-78.80508 -7.90808,-13.52737 -34.78722,40.69043 -39.3754,23.31628 -4.58818,-17.37416 22.73465,-36.97106 19.65139,-54.68449 -3.08326,-17.71344 -32.80929,-3.12468 -32.04209,-22.05774 0.76719,-18.93307 37.10821,4.55338 42.04353,-11.39814 4.93532,-15.95152 -20.35933,-49.27819 -12.06881,-61.44486 8.29053,-12.16668 12.16056,40.29787 22.44906,32.33029 10.2885,-7.96757 9.19325,-52.73986 19.77134,-54.89819 z"
       id="path2188"
       style="fill:#d3ff7c;fill-opacity:0.83333333;fill-rule:evenodd;stroke:none"
       inkscape:connector-curvature="0" />
    <path
       d="m 353.90352,121.88202 c 6.97194,-1.29641 4.71173,14.54063 11.88628,18.55346 7.17455,4.01285 18.94823,0.92554 24.84016,8.22594 5.89192,7.30041 3.67193,29.92904 7.19535,39.69291 3.52341,9.76388 22.13801,3.66107 23.91352,14.60928 1.77551,10.94821 -14.4332,16.6829 -15.60592,27.23925 -1.17272,10.55635 8.36512,33.28816 3.72075,42.28287 -4.64437,8.99471 -22.87492,-5.62911 -28.22649,1.93244 -5.35157,7.56154 -2.35471,33.2618 -9.3783,37.75009 -7.0236,4.48828 -10.79562,-23.42003 -18.27475,-23.21124 -7.47913,0.2088 -12.21435,32.94968 -19.26494,30.07228 -7.05058,-2.8774 -9.69035,-42.26373 -14.8859,-49.35209 -5.19555,-7.08836 -19.72782,11.73235 -22.75186,1.2965 -3.02403,-10.43586 12.41916,-32.76441 10.83913,-43.8853 -1.58004,-11.12088 -23.11966,-11.2044 -22.614,-22.57663 0.50565,-11.37223 15.30172,-23.54082 18.45272,-33.15067 3.15101,-9.60985 4.56801,-22.6264 10.03224,-29.93436 5.46423,-7.30797 8.22396,14.73426 14.9077,10.76139 6.68373,-3.97288 18.24237,-29.00972 25.21431,-30.30612 z"
       id="path2190"
       style="fill:none;stroke:#000000;stroke-width:9.95800304;stroke-linecap:round;stroke-linejoin:miter;stroke-miterlimit:4;stroke-opacity:1;stroke-dasharray:7.07386785, 42.44320706;stroke-dashoffset:0"
       inkscape:connector-curvature="0" />
    <path
       d="m 318.80674,95.907387 c -12.05396,4.791643 -6.18799,52.258883 -15.40551,63.704523 -9.21753,11.44566 -24.86402,-13.95459 -31.17259,1.33928 -6.30856,15.29388 17.46593,27.64136 16.52587,44.8002 -0.94008,17.15884 -40.70836,34.08895 -38.52822,50.75698 2.18015,16.66803 42.74067,1.2301 50.24181,15.263 7.50113,14.0329 -15.61253,55.79441 -4.13951,64.4132 11.47301,8.61878 25.80179,-17.19311 38.42308,-12.64821 12.62129,4.54491 21.664,34.06874 35.13915,33.85669 13.47517,-0.21204 9.80752,-32.55811 21.32382,-39.8878 11.5163,-7.3297 30.23055,25.36085 40.39647,14.87832 10.16591,-10.48252 -13.29457,-46.80254 -6.51432,-61.82523 6.78026,-15.02269 42.73799,-12.834 43.23922,-29.90796 0.50122,-17.07395 -29.45692,-33.86053 -33.05422,-49.30898 -3.5973,-15.44845 28.14339,-30.52299 21.97418,-45.60151 -6.16921,-15.07852 -41.74458,-3.33619 -51.3907,-14.89957 -9.64612,-11.56337 -4.40637,-37.430493 -16.71482,-42.600303 -12.30847,-5.16982 -14.64034,25.292283 -27.53311,25.566583 -12.89277,0.27432 -30.75666,-22.690853 -42.8106,-17.899213 z"
       id="path2192"
       style="fill:none;stroke:#000000;stroke-width:9.958004;stroke-linecap:round;stroke-linejoin:miter;stroke-miterlimit:4;stroke-opacity:1;stroke-dasharray:7.07386652, 42.44319929;stroke-dashoffset:0"
       inkscape:connector-curvature="0" />
    <path
       sodipodi:nodetypes="sssss"
       d="M 210.84257,618.22908 C 75.059826,614.49736 -0.81744141,576.05304 -1.3131595,476.27725 -1.697402,398.93873 109.14549,371.89383 234.40114,381.26221 c 125.25566,9.36839 213.7978,32.88213 210.85691,112.30989 -3.12053,84.27967 -83.6494,128.80049 -234.41548,124.65698 z"
       id="path2210"
       style="fill:#786b16;fill-opacity:1;fill-rule:evenodd;stroke:none;stroke-width:8.19999981;marker:none;visibility:visible;display:inline;overflow:visible"
       inkscape:connector-curvature="0" />
    <path
       d="M 214.65819,544.0308 C 78.888074,539.04837 8.254324,496.73699 16.203824,453.84375 24.153314,410.9505 118.0884,383.76491 235.5847,390.65492 c 117.4963,6.89002 202.14714,42.4787 192.07022,85.23407 -5.40623,22.93805 -75.229,73.19753 -212.99673,68.14181 z"
       id="path2202"
       style="fill:#78cc00;fill-opacity:1;fill-rule:evenodd;stroke:#c4f080;stroke-width:12.49999809;stroke-linecap:butt;stroke-linejoin:miter;stroke-miterlimit:4;stroke-opacity:1;stroke-dasharray:none"
       inkscape:connector-curvature="0" />
    <path
       d="m 336.03082,454.15061 c 2.54219,5.22398 -48.57916,1.66806 -56.2677,6.69146 -7.68854,5.0234 38.59747,8.10627 26.77865,12.59226 -11.81884,4.486 -33.53178,-7.58766 -48.41217,-4.25799 -14.88039,3.32967 5.06713,19.35216 -13.04767,20.77824 -18.1148,1.42608 -2.38239,-19.76408 -20.24802,-20.10753 -17.86564,-0.34346 -45.20123,17.73821 -60.42127,14.32725 -15.22006,-3.41096 28.9735,-14.80971 16.68565,-19.19302 -12.28783,-4.38331 -56.05804,5.07872 -63.91296,-0.15696 -7.85491,-5.23569 50.75237,-4.45227 51.79156,-9.87359 1.03919,-5.42132 -65.5443,-4.3172 -61.14747,-9.63566 4.39683,-5.31845 65.50686,3.46667 78.73551,-0.51591 13.22864,-3.98258 -41.92674,-17.00843 -24.7333,-19.36763 17.19344,-2.3592 37.77097,11.06269 55.35828,9.44653 17.58731,-1.61616 1.92645,-16.2529 20.87278,-15.96973 18.94633,0.28317 -3.19736,18.38768 12.92165,20.74881 16.11902,2.36112 48.49791,-10.32681 60.9573,-6.28593 12.45939,4.04088 -39.82338,6.22354 -31.487,11.2746 8.33637,5.05106 53.03399,4.28081 55.57618,9.5048 z"
       id="path2204"
       style="fill:#d3ff7c;fill-opacity:0.83333333;fill-rule:evenodd;stroke:none"
       inkscape:connector-curvature="0" />
    <path
       d="m 321.95352,454.73841 c 1.54951,3.44373 -14.35762,2.4059 -18.10585,5.97695 -3.74825,3.57106 -0.23422,9.38198 -7.31422,12.33504 -7.08,2.95305 -29.772,1.96975 -39.39988,3.76321 -9.62788,1.79347 -2.85137,10.97451 -13.72637,11.90899 -10.87501,0.93449 -17.19601,-7.05778 -27.78691,-7.58434 -10.59091,-0.52656 -32.95747,4.30948 -42.11447,2.05688 -9.15702,-2.25259 4.79102,-11.34922 -2.95972,-13.9591 -7.75073,-2.60989 -33.32182,-0.99578 -38.06262,-4.4488 -4.74079,-3.45302 23.0084,-5.462 22.52718,-9.16227 -0.48123,-3.70026 -33.3693,-5.87678 -30.7511,-9.3807 2.61819,-3.50392 41.87776,-5.01107 48.77127,-7.61842 6.8935,-2.60735 -12.44227,-9.70326 -2.12473,-11.25302 10.31755,-1.54975 33.19164,5.97909 44.24632,5.14047 11.05467,-0.83863 10.35307,-11.49876 21.73491,-11.30648 11.38184,0.19227 24.08026,7.45264 33.79751,8.96306 9.71724,1.51041 22.77534,2.14532 30.27679,4.81225 7.50146,2.66693 -14.4231,4.14504 -10.20971,7.43249 4.2134,3.28745 29.6521,8.88007 31.2016,12.32379 z"
       id="path2206"
       style="fill:none;stroke:#000000;stroke-width:9.95800686;stroke-linecap:round;stroke-linejoin:miter;stroke-miterlimit:4;stroke-opacity:1;stroke-dasharray:7.0738701, 42.44322061;stroke-dashoffset:0"
       inkscape:connector-curvature="0" />
    <path
       d="m 346.62854,437.23687 c -5.22725,-5.94092 -52.4439,-2.79599 -64.21663,-7.29928 -11.77273,-4.50328 13.03757,-12.37599 -2.47438,-15.42006 -15.51195,-3.04406 -26.98335,8.78454 -44.16316,8.40677 -17.1798,-0.37777 -35.54621,-19.97225 -52.12187,-18.80837 -16.57565,1.16388 0.32861,21.15804 -13.42002,24.94178 -13.74863,3.78373 -56.32019,-7.44204 -64.51414,-1.72028 -8.193946,5.72177 18.12017,12.68133 14.03881,18.9506 -4.08138,6.26926 -33.252756,10.89486 -32.549746,17.56245 0.70301,6.66759 32.890326,4.68765 40.634066,10.34955 7.74375,5.6619 -24.23938,15.08996 -13.39447,20.0675 10.84491,4.97754 46.28172,-6.81785 61.53989,-3.53897 15.25816,3.27889 14.38171,21.08503 31.4607,21.24606 17.07899,0.16102 32.76069,-14.75042 48.06605,-16.60941 15.30537,-1.859 31.52506,13.7722 46.36705,10.64229 14.84198,-3.12992 1.81215,-20.67583 13.015,-25.5085 11.20284,-4.83267 37.24087,-2.37144 41.95808,-8.48907 4.7172,-6.11764 -25.80627,-7.11639 -26.55026,-13.49545 -0.74401,-6.37906 21.55229,-15.3367 16.32503,-21.27761 z"
       id="path2208"
       style="fill:none;stroke:#000000;stroke-width:9.95798874;stroke-linecap:round;stroke-linejoin:miter;stroke-miterlimit:4;stroke-opacity:1;stroke-dasharray:7.07385657, 42.44313955;stroke-dashoffset:0"
       inkscape:connector-curvature="0" />
  </g>
</svg>
